<?xml version="1.0" standalone="no"?> <!DOCTYPE svg PUBLIC "-//W3C//DTD SVG 1.0//EN" "http://www.w3.org/TR/2001/REC-SVG-20010904/DTD/svg10.dtd" > <svg xmlns="http://www.w3.org/2000/svg" width="100%" height="100%">
<defs >
<font id="istokweb-bolditalic" horiz-adv-x="1202" ><font-face
    font-family="Istok Web"
    units-per-em="2048"
    panose-1="2 0 7 3 3 4 3 9 2 4"
    ascent="2061"
    descent="-887"
    alphabetic="0" />
<missing-glyph horiz-adv-x="1260" d="M200 0Q140 0 140 60V1374Q140 1434 192 1434H1060Q1120 1434 1120 1374V60Q1120 0 1060 0H200ZM320 180H940V1254H320V180Z" />
<glyph unicode=" " glyph-name="space" horiz-adv-x="700" />
<glyph unicode="!" glyph-name="exclam" horiz-adv-x="668" d="M378 1359Q393 1434 465 1434H625Q697 1434 678 1359L449 485Q432 420 369 420H253Q190 420 203 485L378 1359ZM138 0Q68 0 85 75L116 209Q133 284 204 284H356Q426 284 408 209L377 75Q360 0 290 0H138Z" />
<glyph unicode="&quot;" glyph-name="quotedbl" horiz-adv-x="976" d="M592 1404Q604 1469 658 1469H832Q886 1469 868 1404L724 884Q707 824 660 824H532Q485 824 496 884L592 1404ZM772 1404Q784 1469 838 1469H1012Q1066 1469 1048 1404L904 884Q887 824 840
824H712Q665 824 676 884L772 1404Z" />
<glyph unicode="#" glyph-name="numbersign" horiz-adv-x="1416" d="M173 344Q113 344 121 394L136 474Q145 524 204 524H385L450 898H270Q211 898 219 948L233 1028Q242 1078 302 1078H482L532 1362Q543 1422 593 1422H679Q729 1422 718 1362L668 1078H966L1016
1362Q1027 1422 1077 1422H1163Q1213 1422 1202 1362L1152 1078H1332Q1391 1078 1383 1028L1369 948Q1360 898 1300 898H1120L1055 524H1234Q1294 524 1286 474L1271 394Q1262 344 1203 344H1023L973 60Q962 0 912 0H826Q776 0 787 60L837 344H539L489 60Q478 0
428 0H342Q292 0 303 60L353 344H173ZM571 524H869L934 898H636L571 524Z" />
<glyph unicode="$" glyph-name="dollar" horiz-adv-x="1200" d="M57 102Q-1 154 32 200L102 298Q136 346 206 288Q260 243 334 219T452 188L552 618Q492 646 470 660Q401 704 357 757T288 869T264 1037Q264 1146 333 1258T526 1412T746 1455L769 1556Q783 1616
833 1616H913Q963 1616 949 1556L924 1450Q1010 1436 1056 1411T1147 1347Q1206 1296 1174 1257L1088 1151Q1041 1094 1002 1143Q982 1168 947 1191T872 1224L775 806Q808 787 842 772Q916 738 972 681T1050 547T1073 406Q1073 273 991 162T795 9T582 -32L555 -150Q541
-210 492 -210H412Q361 -210 375 -150L403 -27Q327 -18 225 12T57 102ZM520 1039Q520 1009 530 974T588 901Q604 889 614 883L694 1233Q612 1224 566 1163T520 1039ZM634 196Q695 210 754 264T813 402Q813 437 800 473T746 534Q737 540 717 550L634 196Z" />
<glyph unicode="%" glyph-name="percent" horiz-adv-x="1802" d="M98 1062Q98 1212 214 1361T506 1510Q634 1510 699 1431T764 1182Q764 1022 648 878T356 734Q228 734 163 813T98 1062ZM300 1032Q300 966 315 918T372 869Q452 869 507 978T562 1212Q562 1278
547 1326T490 1375Q410 1375 355 1266T300 1032ZM131 -21Q98 10 142 57L1502 1515Q1551 1567 1583 1536L1651 1471Q1684 1440 1640 1393L281 -65Q233 -117 200 -86L131 -21ZM1013 268Q1013 418 1129 567T1421 716Q1549 716 1614 637T1679 388Q1679 228 1563 84T1271
-60Q1143 -60 1078 19T1013 268ZM1215 238Q1215 172 1230 124T1287 75Q1367 75 1422 184T1477 418Q1477 484 1462 532T1405 581Q1325 581 1270 472T1215 238Z" />
<glyph unicode="&amp;" glyph-name="ampersand" horiz-adv-x="1416" d="M69 279Q69 452 175 577T508 829Q455 909 431 971T407 1134Q407 1272 521 1370T833 1468Q995 1468 1086 1384T1178 1185Q1178 1061 1090 961T848 769L1010 459Q1060 504 1093 544T1164 645Q1204
710 1258 675L1355 613Q1375 601 1344 538Q1304 456 1254 393T1114 264L1218 66Q1253 0 1172 0H1017Q946 0 914 59L884 115Q801 42 682 4T449 -34Q244 -34 157 57T69 279ZM369 314Q369 254 402 219T505 184Q588 184 650 216T784 303L614 624Q500 546 435 476T369
314ZM677 1133Q677 1086 686 1048T738 954Q836 1010 872 1051T908 1145Q908 1184 884 1211T801 1238Q746 1238 712 1201T677 1133Z" />
<glyph unicode="&apos;" glyph-name="quotesingle" horiz-adv-x="560" d="M346 1404Q358 1469 412 1469H586Q640 1469 622 1404L478 884Q461 824 414 824H286Q239 824 250 884L346 1404Z" />
<glyph unicode="(" glyph-name="parenleft" horiz-adv-x="740" d="M77 339Q77 768 310 1096T738 1531Q788 1558 809 1540L895 1458Q928 1426 878 1386Q708 1248 543 994T377 327Q377 76 398 -59T473 -315Q499 -373 460 -398L379 -450Q337 -477 301 -426Q204 -291
141 -96T77 339Z" />
<glyph unicode=")" glyph-name="parenright" horiz-adv-x="740" d="M-143 -370Q-176 -338 -126 -298Q44 -160 209 94T375 761Q375 1012 354 1147T279 1403Q253 1461 292 1486L373 1538Q415 1565 451 1514Q548 1379 611 1184T675 749Q675 320 442 -8T14 -443Q-36
-470 -57 -452L-143 -370Z" />
<glyph unicode="*" glyph-name="asterisk" horiz-adv-x="960" d="M472 1058L296 1142Q219 1179 277 1253L302 1284Q361 1356 423 1300L565 1172L589 1385Q599 1478 683 1478H719Q803 1478 771 1385L697 1172L897 1300Q986 1357 1011 1283L1022 1252Q1047 1179
952 1142L736 1058L914 973Q991 936 932 864L907 833Q848 760 786 816L644 944L620 732Q609 638 524 638H489Q405 638 438 732L512 944L311 816Q222 759 197 832L186 863Q160 936 257 974L472 1058Z" />
<glyph unicode="+" glyph-name="plus" horiz-adv-x="1280" d="M182 632Q122 632 122 682V768Q122 818 182 818H594V1230Q594 1290 644 1290H730Q780 1290 780 1230V818H1192Q1252 818 1252 768V682Q1252 632 1192 632H780V220Q780 160 730 160H644Q594 160 594
220V632H182Z" />
<glyph unicode="," glyph-name="comma" horiz-adv-x="668" d="M136 0Q66 0 83 75L114 209Q131 284 202 284H358Q428 284 410 209L379 75Q354 -34 320 -122T197 -282Q145 -324 115 -290L80 -253Q51 -223 109 -178Q146 -149 169 -104T205 0H136Z" />
<glyph unicode="-" glyph-name="hyphen" horiz-adv-x="700" d="M96 446Q36 446 48 496L74 610Q86 660 145 660H619Q679 660 668 610L642 496Q630 446 570 446H96Z" />
<glyph unicode="." glyph-name="period" horiz-adv-x="668" d="M138 0Q68 0 85 75L116 209Q133 284 204 284H356Q426 284 408 209L377 75Q360 0 290 0H138Z" />
<glyph unicode="/" glyph-name="slash" horiz-adv-x="856" d="M-177 -368Q-217 -345 -185 -294L878 1432Q915 1493 955 1470L1037 1423Q1077 1400 1045 1349L-19 -377Q-56 -437 -95 -415L-177 -368Z" />
<glyph unicode="0" glyph-name="zero" horiz-adv-x="1200" d="M100 489Q100 809 242 1132T760 1456Q950 1456 1069 1340T1188 933Q1188 613 1046 290T528 -34Q338 -34 219 82T100 489ZM396 449Q396 309 433 247T546 184Q721 184 806 466T892 973Q892 1113 855
1175T742 1238Q567 1238 482 956T396 449Z" />
<glyph unicode="1" glyph-name="one" horiz-adv-x="907" d="M293 1138Q275 1186 345 1214Q409 1240 485 1287T614 1384Q672 1440 712 1440H871Q932 1440 918 1380L613 60Q599 0 539 0H379Q319 0 333 60L547 991Q557 1033 570 1071H566Q535 1034 496 1011T411 972Q362
955 346 998L293 1138Z" />
<glyph unicode="2" glyph-name="two" horiz-adv-x="1200" d="M43 0Q-32 0 -17 65L-6 113Q6 165 66 216L438 531Q627 691 771 839T915 1075Q915 1170 870 1201T764 1232Q645 1232 573 1180T447 1031Q406 958 363 980L268 1029Q210 1059 240 1123Q309 1269 435 1362T801
1456Q996 1456 1105 1360T1215 1094Q1215 910 997 721T655 429L440 250L438 244Q499 248 539 248H972Q1047 248 1032 183L1005 65Q990 0 915 0H43Z" />
<glyph unicode="3" glyph-name="three" horiz-adv-x="1200" d="M48 95Q-3 137 22 183L74 280Q107 342 181 289Q237 249 315 220T491 190Q646 190 720 267T795 442Q795 544 732 601T569 658H504Q438 658 451 711L477 821Q490 876 554 876H604Q728 876 812 940T897
1096Q897 1156 851 1194T699 1232Q610 1232 544 1203T428 1136Q363 1087 325 1141L271 1217Q235 1267 291 1315Q363 1377 484 1416T752 1456Q976 1456 1082 1354T1189 1123Q1189 978 1078 889T834 778V774Q946 748 1020 655T1095 427Q1095 260 950 113T473 -34Q359
-34 241 -1T48 95Z" />
<glyph unicode="4" glyph-name="four" horiz-adv-x="1200" d="M79 312Q14 312 29 377L60 509Q73 565 112 608L830 1388Q878 1440 935 1440H1098Q1164 1440 1149 1375L961 560H1082Q1147 560 1132 495L1105 377Q1090 312 1026 312H904L847 65Q832 0 767 0H617Q552
0 567 65L624 312H79ZM380 560H681L764 917Q773 957 786 997H782L380 560Z" />
<glyph unicode="5" glyph-name="five" horiz-adv-x="1200" d="M32 105Q-7 145 23 181L101 276Q146 331 203 279Q258 228 310 209T465 190Q600 190 697 278T794 527Q794 642 742 672T635 702Q582 702 546 692T434 635Q382 602 334 602H225Q160 602 175 667L334
1357Q349 1422 414 1422H1134Q1199 1422 1184 1357L1157 1239Q1142 1174 1077 1174H572L515 929Q505 886 488 849H499Q564 894 623 910T760 926Q906 926 1000 822T1094 513Q1094 300 924 133T478 -34Q333 -34 222 -5T32 105Z" />
<glyph unicode="6" glyph-name="six" horiz-adv-x="1200" d="M112 491Q112 909 311 1182T827 1456Q947 1456 1031 1435T1184 1356Q1236 1312 1205 1272L1128 1173Q1097 1133 1035 1173Q981 1208 930 1220T818 1232Q693 1232 581 1126T417 797H421Q484 872 572
899T741 926Q933 926 1024 819T1116 525Q1116 291 950 129T529 -34Q309 -34 211 92T112 491ZM398 383Q398 279 446 235T566 190Q668 190 742 296T816 550Q816 630 768 666T660 702Q537 702 468 600T398 383Z" />
<glyph unicode="7" glyph-name="seven" horiz-adv-x="1112" d="M299 1174Q234 1174 249 1239L276 1357Q291 1422 356 1422H1172Q1237 1422 1222 1357L1196 1244Q1184 1191 1121 1137Q869 921 733 695T518 121L504 59Q489 -6 424 -6H274Q210 -6 224 59L230 86Q319
489 501 738T897 1174L898 1178Q857 1174 817 1174H299Z" />
<glyph unicode="8" glyph-name="eight" horiz-adv-x="1200" d="M54 331Q54 516 172 633T432 767V772Q369 801 313 858T256 1025Q256 1209 405 1332T774 1456Q1012 1456 1109 1361T1207 1123Q1207 978 1096 888T886 772V767Q969 729 1030 662T1091 443Q1091 267
946 117T526 -34Q303 -34 179 48T54 331ZM354 381Q354 266 405 228T546 190Q646 190 718 264T791 453Q791 537 751 590T625 644Q510 644 432 560T354 381ZM548 1035Q548 952 589 919T683 886Q801 886 858 950T915 1093Q915 1156 874 1194T754 1232Q668 1232 608
1176T548 1035Z" />
<glyph unicode="9" glyph-name="nine" horiz-adv-x="1200" d="M171 897Q171 1131 337 1293T758 1456Q978 1456 1076 1330T1175 931Q1175 513 976 240T460 -34Q340 -34 256 -13T103 66Q51 110 82 150L159 249Q190 289 252 249Q306 214 357 202T469 190Q594 190
706 296T870 625H866Q803 550 715 523T546 496Q354 496 263 603T171 897ZM471 872Q471 792 519 756T627 720Q750 720 819 822T889 1039Q889 1143 841 1187T721 1232Q619 1232 545 1126T471 872Z" />
<glyph unicode=":" glyph-name="colon" horiz-adv-x="668" d="M138 0Q68 0 85 75L116 209Q133 284 204 284H356Q426 284 408 209L377 75Q360 0 290 0H138ZM315 766Q245 766 262 841L293 975Q310 1050 381 1050H533Q603 1050 585 975L554 841Q537 766 467 766H315Z" />
<glyph unicode=";" glyph-name="semicolon" horiz-adv-x="668" d="M315 766Q245 766 262 841L293 975Q310 1050 381 1050H533Q603 1050 585 975L554 841Q537 766 467 766H315ZM136 0Q66 0 83 75L114 209Q131 284 202 284H358Q428 284 410 209L379 75Q354 -34 320
-122T197 -282Q145 -324 115 -290L80 -253Q51 -223 109 -178Q146 -149 169 -104T205 0H136Z" />
<glyph unicode="&lt;" glyph-name="less" horiz-adv-x="1327" d="M175 634Q135 655 135 689V781Q135 815 175 836L1116 1337Q1169 1365 1193 1321L1230 1250Q1253 1206 1201 1178L367 736V734L1201 292Q1253 264 1230 220L1193 149Q1169 105 1116 133L175 634Z" />
<glyph unicode="=" glyph-name="equal" horiz-adv-x="1280" d="M182 462Q122 462 122 512V598Q122 648 182 648H1192Q1252 648 1252 598V512Q1252 462 1192 462H182ZM182 802Q122 802 122 852V938Q122 988 182 988H1192Q1252 988 1252 938V852Q1252 802 1192 802H182Z" />
<glyph unicode="&gt;" glyph-name="greater" horiz-adv-x="1327" d="M144 220Q121 264 173 292L1007 734V736L173 1178Q121 1206 144 1250L181 1321Q205 1365 258 1337L1199 836Q1239 815 1239 781V689Q1239 655 1199 634L258 133Q205 105 181 149L144 220Z" />
<glyph unicode="?" glyph-name="question" horiz-adv-x="1106" d="M258 1164Q199 1217 245 1266Q312 1338 423 1403T704 1468Q900 1468 1018 1396T1136 1158Q1136 948 919 788T669 494L665 478Q649 413 585 413H435Q370 413 385 478L392 508Q444 730 640 873T836
1134Q836 1180 802 1212T684 1244Q614 1244 547 1203T434 1105Q387 1048 345 1086L258 1164ZM339 0Q269 0 286 75L317 209Q334 284 405 284H557Q627 284 609 209L578 75Q561 0 491 0H339Z" />
<glyph unicode="@" glyph-name="at" horiz-adv-x="2074" d="M112 564Q112 964 375 1232T1063 1500Q1451 1500 1706 1288T1962 700Q1962 406 1819 253T1439 100Q1337 100 1275 133T1189 271H1187Q1126 194 1058 147T872 100Q755 100 660 188T564 487Q564 714 715
878T1075 1043Q1215 1043 1266 897H1270L1284 958Q1295 1006 1343 1006H1482Q1533 1006 1521 954L1401 422Q1384 347 1392 314T1450 280Q1595 280 1684 378T1774 661Q1774 972 1587 1145T1063 1318Q731 1318 516 1105T300 570Q300 244 513 34T1061 -176Q1211 -176
1324 -153T1582 -50Q1627 -25 1641 -47L1703 -140Q1730 -181 1687 -206Q1539 -294 1364 -326T1050 -358Q647 -358 380 -95T112 564ZM806 433Q806 366 838 323T924 280Q1017 280 1099 376T1196 582Q1205 648 1205 704Q1205 768 1169 815T1079 863Q987 863 897 757T806
433Z" />
<glyph unicode="A" glyph-name="A" horiz-adv-x="1394" d="M-30 0Q-102 0 -63 66L701 1353Q749 1434 812 1434H952Q1015 1434 1029 1353L1245 66Q1256 0 1184 0H1045Q979 0 968 69L923 338H415L256 69Q215 0 149 0H-30ZM561 586H883L827 904Q819 951 819 981T825
1061H821Q805 1012 796 987T751 904L561 586Z" />
<glyph unicode="B" glyph-name="B" horiz-adv-x="1379" d="M120 0Q40 0 57 75L354 1359Q371 1434 451 1434H771Q1068 1434 1193 1335T1318 1076Q1318 920 1193 840T948 750V747Q1064 736 1158 658T1252 423Q1252 244 1068 122T530 0H120ZM388 244H554Q784 244
862 290T940 452Q940 544 865 581T601 618H475L388 244ZM529 854H680Q840 854 931 913T1022 1056Q1022 1132 957 1161T718 1190H607L529 854Z" />
<glyph unicode="C" glyph-name="C" horiz-adv-x="1404" d="M100 588Q100 936 302 1202T892 1468Q1072 1468 1198 1406T1380 1251Q1420 1185 1363 1147L1239 1064Q1193 1033 1143 1100Q1093 1166 1018 1199T871 1232Q660 1232 536 1040T412 550Q412 399 490 301T757
202Q865 202 937 243T1050 342Q1103 415 1150 389L1277 319Q1339 285 1295 221Q1219 111 1078 39T736 -34Q436 -34 268 119T100 588Z" />
<glyph unicode="D" glyph-name="D" horiz-adv-x="1402" d="M110 0Q40 0 57 75L354 1359Q371 1434 441 1434H740Q1098 1434 1254 1269T1410 831Q1410 471 1183 236T489 0H110ZM389 248H527Q828 248 963 408T1098 852Q1098 1005 1025 1096T684 1188H606L389 248Z" />
<glyph unicode="E" glyph-name="E" horiz-adv-x="1280" d="M110 0Q40 0 57 75L354 1359Q371 1434 441 1434H1299Q1374 1434 1359 1369L1332 1251Q1317 1186 1242 1186H606L532 868H1115Q1190 868 1175 803L1148 685Q1133 620 1058 620H475L389 248H1057Q1132 248
1117 183L1090 65Q1075 0 1000 0H110Z" />
<glyph unicode="F" glyph-name="F" horiz-adv-x="1176" d="M110 0Q40 0 57 75L354 1359Q371 1434 441 1434H1232Q1307 1434 1292 1369L1265 1251Q1250 1186 1175 1186H606L525 838H1012Q1087 838 1072 773L1045 655Q1030 590 955 590H468L349 75Q332 0 262 0H110Z" />
<glyph unicode="G" glyph-name="G" horiz-adv-x="1510" d="M100 588Q100 951 300 1209T902 1468Q1082 1468 1213 1411T1400 1261Q1440 1195 1383 1157L1259 1074Q1213 1043 1163 1110Q1113 1176 1033 1204T881 1232Q657 1232 535 1054T412 550Q412 399 485 301T766
202Q859 202 937 233T1078 312L1116 476H899Q824 476 839 541L866 659Q881 724 956 724H1390Q1465 724 1450 659L1330 138Q1207 66 1056 16T745 -34Q447 -34 274 119T100 588Z" />
<glyph unicode="H" glyph-name="H" horiz-adv-x="1442" d="M110 0Q40 0 57 75L354 1359Q371 1434 441 1434H593Q663 1434 646 1359L533 870H1071L1184 1359Q1201 1434 1271 1434H1423Q1493 1434 1476 1359L1179 75Q1162 0 1092 0H940Q870 0 887 75L1014 622H476L349
75Q332 0 262 0H110Z" />
<glyph unicode="I" glyph-name="I" horiz-adv-x="612" d="M110 0Q40 0 57 75L354 1359Q371 1434 441 1434H593Q663 1434 646 1359L349 75Q332 0 262 0H110Z" />
<glyph unicode="J" glyph-name="J" horiz-adv-x="947" d="M-26 22Q-66 47 -48 97L2 231Q23 287 92 243Q156 202 228 202Q343 202 401 282T498 531L689 1359Q706 1434 776 1434H928Q998 1434 981 1359L794 551Q709 183 569 75T207 -34Q66 -34 -26 22Z" />
<glyph unicode="K" glyph-name="K" horiz-adv-x="1361" d="M110 0Q40 0 57 75L354 1359Q371 1434 441 1434H593Q663 1434 646 1359L561 993Q547 935 523 873H530L1103 1375Q1170 1434 1209 1434H1449Q1565 1434 1467 1348L894 845L1203 86Q1238 0 1145 0H989Q937
0 913 59L673 652L434 443L349 75Q332 0 262 0H110Z" />
<glyph unicode="L" glyph-name="L" horiz-adv-x="1162" d="M110 0Q40 0 57 75L354 1359Q371 1434 441 1434H603Q663 1434 646 1359L389 248H972Q1047 248 1032 183L1005 65Q990 0 915 0H110Z" />
<glyph unicode="M" glyph-name="M" horiz-adv-x="1828" d="M110 0Q40 0 57 75L354 1359Q371 1434 441 1434H717Q776 1434 782 1354L850 477Q855 415 854 381T846 297H852Q869 347 883 383T930 477L1404 1354Q1447 1434 1505 1434H1809Q1879 1434 1862 1359L1565
75Q1548 0 1478 0H1326Q1256 0 1273 75L1464 901Q1478 960 1497 1021H1490L984 81Q940 0 879 0H709Q648 0 642 81L570 1021H563Q554 963 540 901L349 75Q332 0 262 0H110Z" />
<glyph unicode="N" glyph-name="N" horiz-adv-x="1472" d="M110 0Q40 0 57 75L354 1359Q371 1434 441 1434H576Q662 1434 690 1364L1019 524H1026Q1035 584 1049 644L1214 1359Q1231 1434 1301 1434H1453Q1523 1434 1506 1359L1209 75Q1192 0 1122 0H997Q911 0
883 70L548 926H541Q532 866 518 806L349 75Q332 0 262 0H110Z" />
<glyph unicode="O" glyph-name="O" horiz-adv-x="1532" d="M104 587Q104 957 317 1212T880 1468Q1180 1468 1349 1313T1518 847Q1518 477 1305 222T742 -34Q442 -34 273 121T104 587ZM416 545Q416 385 501 294T756 202Q956 202 1081 390T1206 889Q1206 1049 1121
1140T866 1232Q666 1232 541 1044T416 545Z" />
<glyph unicode="P" glyph-name="P" horiz-adv-x="1328" d="M110 0Q40 0 57 75L354 1359Q371 1434 441 1434H795Q1076 1434 1212 1341T1348 1047Q1348 820 1168 678T628 536H456L349 75Q332 0 262 0H110ZM512 780H683Q892 780 972 846T1052 1011Q1052 1113 984
1151T738 1190H607L512 780Z" />
<glyph unicode="Q" glyph-name="Q" horiz-adv-x="1532" d="M104 587Q104 957 317 1212T880 1468Q1180 1468 1349 1313T1518 847Q1518 478 1305 222Q1140 24 892 -21Q898 -111 930 -156T1069 -202Q1119 -202 1173 -185Q1221 -170 1231 -207L1264 -323Q1274 -358
1228 -373Q1125 -407 1007 -407Q790 -407 699 -305T599 -24Q399 6 273 122Q104 278 104 587ZM416 545Q416 385 501 294T756 202Q956 202 1081 390T1206 889Q1206 1049 1121 1140T866 1232Q666 1232 541 1044T416 545Z" />
<glyph unicode="R" glyph-name="R" horiz-adv-x="1428" d="M110 0Q40 0 57 75L354 1359Q371 1434 441 1434H851Q1152 1434 1279 1340T1407 1077Q1407 917 1277 798T908 647V645Q987 612 1022 549T1078 433L1212 86Q1245 0 1154 0H1001Q946 0 925 59L806 396Q779
473 714 526T560 579H466L349 75Q332 0 262 0H110ZM523 827H732Q876 827 998 883T1121 1049Q1121 1137 1035 1163T794 1190H607L523 827Z" />
<glyph unicode="S" glyph-name="S" horiz-adv-x="1299" d="M84 114Q26 165 64 212L151 319Q191 368 262 314Q318 272 405 237T595 202Q697 202 761 229T853 299T881 397Q881 436 861 473T804 530T720 567Q660 589 603 611T468 672Q405 703 362 735T279 844T240
1035Q240 1162 325 1277T537 1430T799 1468Q935 1468 1052 1431T1228 1337Q1286 1280 1249 1238L1161 1138Q1118 1089 1051 1141Q1000 1182 929 1207T773 1232Q688 1232 639 1214T560 1154T530 1068Q530 1033 542 1001T579 941T650 892Q714 862 797 838T933 791Q1011
759 1067 707T1150 580T1177 416Q1177 292 1112 197T913 34T559 -34Q381 -34 279 -1T84 114Z" />
<glyph unicode="T" glyph-name="T" horiz-adv-x="1246" d="M261 1178Q186 1178 201 1243L230 1369Q245 1434 320 1434H1348Q1423 1434 1408 1369L1379 1243Q1364 1178 1289 1178H921L662 55Q649 0 599 0H407Q357 0 370 55L629 1178H261Z" />
<glyph unicode="U" glyph-name="U" horiz-adv-x="1422" d="M178 597L358 1379Q371 1434 441 1434H593Q663 1434 650 1379L472 607Q410 339 465 271T637 202Q738 202 836 284T990 607L1168 1379Q1181 1434 1251 1434H1403Q1473 1434 1460 1379L1280 597Q1196 233
1042 100T607 -34Q366 -34 234 114T178 597Z" />
<glyph unicode="V" glyph-name="V" horiz-adv-x="1370" d="M239 1368Q230 1434 301 1434H440Q507 1434 516 1365L629 530Q636 470 636 446T629 373H633Q650 422 660 447T705 530L1204 1365Q1245 1434 1312 1434H1491Q1563 1434 1523 1368L748 81Q699 0 635 0H495Q431
0 420 81L239 1368Z" />
<glyph unicode="W" glyph-name="W" horiz-adv-x="2022" d="M238 1354Q235 1434 302 1434H472Q519 1434 520 1368L528 582Q529 491 529 462T517 363H522Q543 433 556 469T613 588L1014 1360Q1052 1434 1115 1434H1299Q1362 1434 1366 1360L1411 588Q1416 504 1413
469T1398 363H1403Q1424 433 1443 476T1492 582L1864 1368Q1895 1434 1942 1434H2142Q2210 1434 2170 1354L1539 97Q1490 0 1423 0H1248Q1190 0 1185 96L1139 934Q1135 1004 1136 1023T1146 1099H1144Q1126 1043 1118 1022T1075 934L641 96Q591 0 534 0H359Q291
0 287 97L238 1354Z" />
<glyph unicode="X" glyph-name="X" horiz-adv-x="1392" d="M-12 0Q-109 0 -30 86L594 764L297 1348Q253 1434 355 1434H531Q582 1434 607 1375L782 958L1120 1375Q1168 1434 1224 1434H1459Q1557 1434 1477 1348L898 722L1222 86Q1266 0 1164 0H985Q934 0 909
59L709 528L330 59Q282 0 226 0H-12Z" />
<glyph unicode="Y" glyph-name="Y" horiz-adv-x="1368" d="M242 1348Q211 1434 309 1434H454Q506 1434 530 1365L657 994Q674 943 692 886T711 748H715Q734 819 778 877T869 994L1168 1365Q1224 1434 1276 1434H1481Q1579 1434 1508 1348L831 525L723 55Q710 0
640 0H488Q418 0 431 55L539 525L242 1348Z" />
<glyph unicode="Z" glyph-name="Z" horiz-adv-x="1252" d="M16 0Q-59 0 -44 65L-25 147Q-8 219 58 290L894 1184L896 1191Q835 1186 775 1186H330Q255 1186 270 1251L297 1369Q312 1434 387 1434H1299Q1374 1434 1359 1369L1344 1302Q1332 1247 1285 1197L398
250L396 243Q457 248 517 248H1053Q1128 248 1113 183L1086 65Q1071 0 996 0H16Z" />
<glyph unicode="[" glyph-name="bracketleft" horiz-adv-x="694" d="M6 -408Q-54 -408 -40 -348L372 1436Q386 1496 445 1496H793Q853 1496 842 1446L819 1346Q807 1296 747 1296H619L272 -208H400Q460 -208 448 -258L425 -358Q413 -408 354 -408H6Z" />
<glyph unicode="\" glyph-name="backslash" horiz-adv-x="856" d="M138 1365Q124 1424 173 1439L253 1464Q302 1479 315 1426L738 -310Q752 -369 703 -384L623 -409Q574 -424 561 -371L138 1365Z" />
<glyph unicode="]" glyph-name="bracketright" horiz-adv-x="694" d="M-88 -408Q-148 -408 -137 -358L-114 -258Q-102 -208 -42 -208H86L433 1296H305Q245 1296 257 1346L280 1446Q292 1496 351 1496H699Q759 1496 745 1436L333 -348Q319 -408 260 -408H-88Z" />
<glyph unicode="^" glyph-name="asciicircum" horiz-adv-x="920" d="M185 929Q145 958 180 1007L470 1405Q496 1441 542 1441H578Q624 1441 650 1405L940 1007Q976 958 935 929L873 885Q832 856 798 904L561 1233H559L322 904Q288 856 247 885L185 929Z" />
<glyph unicode="_" glyph-name="underscore" horiz-adv-x="1200" d="M-160 -425Q-220 -425 -220 -375V-275Q-220 -225 -160 -225H970Q1030 -225 1030 -275V-375Q1030 -425 970 -425H-160Z" />
<glyph unicode="`" glyph-name="grave" horiz-adv-x="614" d="M328 1376Q279 1435 363 1435H515Q587 1435 610 1388L697 1209Q726 1150 662 1150H576Q515 1150 484 1187L328 1376Z" />
<glyph unicode="a" glyph-name="a" horiz-adv-x="1178" d="M62 379Q62 660 244 865T652 1070Q697 1070 756 1047T863 954H867L884 990Q912 1050 951 1050H1104Q1165 1050 1151 990L936 60Q922 0 862 0H709Q653 0 664 60L678 138H674Q615 66 549 23T398 -20Q239
-20 151 101T62 379ZM358 360Q358 274 396 225T483 176Q569 176 645 262T763 522L800 680Q800 771 767 822T648 874Q524 874 441 716T358 360Z" />
<glyph unicode="b" glyph-name="b" horiz-adv-x="1192" d="M76 0Q16 0 30 60L343 1416Q357 1476 417 1476H577Q637 1476 623 1416L526 992Q517 951 503 912H507Q579 998 636 1034T766 1070Q964 1070 1046 940T1129 651Q1129 388 969 184T596 -20Q524 -20 446 -1T318
96H314L302 60Q282 0 234 0H76ZM381 370Q381 274 414 225T548 176Q683 176 758 328T833 670Q833 774 795 824T688 874Q618 874 538 785T418 528L381 370Z" />
<glyph unicode="c" glyph-name="c" horiz-adv-x="1086" d="M58 412Q58 644 226 857T673 1070Q822 1070 900 1025T1029 906Q1058 864 1012 833L903 760Q864 734 826 790Q805 821 769 847T663 874Q550 874 452 748T354 387Q354 282 403 229T536 176Q614 176 663
209T760 301Q797 347 841 306L922 231Q961 195 920 143Q881 93 783 37T518 -20Q258 -20 158 108T58 412Z" />
<glyph unicode="d" glyph-name="d" horiz-adv-x="1192" d="M66 399Q66 662 226 866T599 1070Q671 1070 749 1051T877 954H881Q885 985 896 1034L983 1416Q997 1476 1057 1476H1217Q1277 1476 1263 1416L950 60Q936 0 876 0H718Q667 0 678 60L692 138H688Q616 52
559 16T429 -20Q231 -20 149 110T66 399ZM362 380Q362 276 400 226T507 176Q577 176 657 265T777 522L814 680Q814 776 781 825T647 874Q512 874 437 722T362 380Z" />
<glyph unicode="e" glyph-name="e" horiz-adv-x="1150" d="M58 415Q58 646 223 858T679 1070Q880 1070 992 980T1104 774Q1104 582 962 522T566 418L357 382Q356 369 356 354Q356 290 391 233T552 176Q624 176 699 203T819 265Q871 304 900 265L959 187Q995 140
951 99Q886 39 781 10T534 -20Q258 -20 158 107T58 415ZM370 570L589 606Q694 623 780 656T867 751Q867 806 815 840T682 874Q555 874 480 786T370 570Z" />
<glyph unicode="f" glyph-name="f" horiz-adv-x="682" d="M177 850Q119 850 130 900L153 1000Q165 1050 223 1050H279L312 1190Q350 1353 451 1424T732 1496Q791 1496 837 1485T921 1458Q956 1444 940 1405L895 1297Q885 1272 846 1284Q817 1293 782 1296T724
1300Q640 1300 617 1242T569 1090L559 1050H691Q751 1050 739 1000L716 900Q704 850 645 850H513L239 -340Q225 -400 165 -400H5Q-55 -400 -41 -340L233 850H177Z" />
<glyph unicode="g" glyph-name="g" horiz-adv-x="1192" d="M66 402Q66 662 226 866T599 1070Q671 1070 749 1051T877 954H881L893 990Q913 1050 960 1050H1118Q1179 1050 1165 990L939 11Q885 -223 741 -321T325 -420Q210 -420 142 -403T-9 -342Q-51 -320 -18
-263L25 -190Q52 -144 103 -170Q140 -189 197 -206T340 -224Q448 -224 538 -176T663 31L671 67Q679 103 694 147H690Q618 61 561 25T431 -11Q233 -11 150 122T66 402ZM362 383Q362 294 401 240T509 185Q579 185 660 276T777 522L814 680Q814 776 781 825T647 874Q512
874 437 722T362 383Z" />
<glyph unicode="h" glyph-name="h" horiz-adv-x="1200" d="M76 0Q16 0 30 60L343 1416Q357 1476 417 1476H577Q637 1476 623 1416L526 992Q517 951 503 912H508Q588 1006 660 1038T833 1070Q978 1070 1061 963T1088 614L960 60Q946 0 886 0H726Q666 0 680 60L791
542Q840 754 816 814T709 874Q604 874 523 757T393 424L310 60Q296 0 236 0H76Z" />
<glyph unicode="i" glyph-name="i" horiz-adv-x="552" d="M76 0Q16 0 30 60L245 990Q259 1050 318 1050H478Q538 1050 525 990L310 60Q296 0 236 0H76ZM610 1204Q550 1204 564 1264L593 1392Q607 1452 667 1452H827Q887 1452 873 1392L844 1264Q830 1204 770 1204H610Z" />
<glyph unicode="j" glyph-name="j" horiz-adv-x="562" d="M-286 -405Q-323 -394 -307 -349L-270 -243Q-258 -208 -216 -215Q-167 -224 -149 -224Q-76 -224 -36 -159T32 26L255 990Q269 1050 328 1050H488Q549 1050 535 990L305 -4Q248 -252 137 -336T-145 -420Q-235
-420 -286 -405ZM620 1204Q560 1204 574 1264L603 1392Q617 1452 677 1452H837Q897 1452 883 1392L854 1264Q840 1204 780 1204H620Z" />
<glyph unicode="k" glyph-name="k" horiz-adv-x="1119" d="M76 0Q16 0 30 60L343 1416Q357 1476 417 1476H577Q637 1476 623 1416L462 719Q453 681 440 639H444L822 1009Q864 1050 909 1050H1100Q1191 1050 1114 976L728 605L951 74Q982 0 903 0H760Q711 0 690
52L538 430L355 257L310 60Q296 0 236 0H76Z" />
<glyph unicode="l" glyph-name="l" horiz-adv-x="552" d="M76 0Q16 0 30 60L303 1241Q313 1286 342 1323L451 1458Q482 1496 511 1496H581Q641 1496 628 1436L310 60Q296 0 236 0H76Z" />
<glyph unicode="m" glyph-name="m" horiz-adv-x="1750" d="M76 0Q16 0 30 60L245 990Q259 1050 318 1050H476Q536 1050 523 990L502 900H506Q552 969 624 1019T772 1070Q897 1070 951 999T1006 839H1010Q1083 951 1173 1010T1392 1070Q1527 1070 1611 964T1635
600L1510 60Q1496 0 1436 0H1276Q1216 0 1230 60L1336 520Q1379 708 1369 791T1284 874Q1214 874 1137 793T991 412L910 60Q896 0 836 0H676Q616 0 630 60L731 500Q778 705 769 789T684 874Q615 874 531 764T391 412L310 60Q296 0 236 0H76Z" />
<glyph unicode="n" glyph-name="n" horiz-adv-x="1200" d="M76 0Q16 0 30 60L245 990Q259 1050 318 1050H476Q538 1050 523 990L504 912H508Q588 1006 660 1038T833 1070Q978 1070 1061 963T1088 614L960 60Q946 0 886 0H726Q666 0 680 60L791 542Q840 754 816
814T709 874Q604 874 523 757T393 424L310 60Q296 0 236 0H76Z" />
<glyph unicode="o" glyph-name="o" horiz-adv-x="1206" d="M58 412Q58 637 224 853T690 1070Q950 1070 1050 942T1150 638Q1150 413 984 197T518 -20Q258 -20 158 108T58 412ZM354 387Q354 287 402 232T536 176Q661 176 757 304T854 663Q854 763 806 818T672 874Q547
874 451 746T354 387Z" />
<glyph unicode="p" glyph-name="p" horiz-adv-x="1192" d="M-16 -400Q-76 -400 -62 -340L245 990Q259 1050 318 1050H476Q528 1050 517 990L503 912H507Q579 998 636 1034T766 1070Q964 1070 1046 940T1129 651Q1129 388 969 184T596 -20Q524 -20 446 -1T318 96H314Q309
54 300 16L218 -340Q204 -400 144 -400H-16ZM381 370Q381 274 414 225T548 176Q683 176 758 328T833 670Q833 774 795 824T688 874Q618 874 538 785T418 528L381 370Z" />
<glyph unicode="q" glyph-name="q" horiz-adv-x="1192" d="M66 399Q66 662 226 866T599 1070Q671 1070 749 1051T877 954H881L893 990Q913 1050 960 1050H1118Q1179 1050 1165 990L858 -340Q844 -400 784 -400H624Q564 -400 578 -340L670 58Q680 101 692 138H688Q616
52 559 16T429 -20Q231 -20 149 110T66 399ZM362 380Q362 276 400 226T507 176Q577 176 657 265T777 522L814 680Q814 776 781 825T647 874Q512 874 437 722T362 380Z" />
<glyph unicode="r" glyph-name="r" horiz-adv-x="786" d="M76 0Q16 0 30 60L245 990Q259 1050 318 1050H472Q533 1050 519 990L491 867H495Q537 952 609 1011T769 1070Q827 1070 861 1056Q890 1044 877 1008L833 889Q818 848 774 865Q750 874 720 874Q630 874
533 738T376 347L310 60Q296 0 236 0H76Z" />
<glyph unicode="s" glyph-name="s" horiz-adv-x="1005" d="M40 72Q-5 105 21 149L75 239Q99 280 160 242Q214 208 289 192T428 176Q494 176 535 195T592 241T608 302Q608 326 599 346T567 382T513 410Q452 434 419 448T341 482Q271 512 234 550T179 634T161 749Q161
850 221 930T379 1040T614 1070Q700 1070 781 1044T912 987Q970 951 933 903L870 821Q843 786 780 824Q750 842 697 858T595 874Q560 874 524 866T463 832T438 768Q438 744 445 724T474 683T523 651Q566 633 607 618T698 580Q765 549 806 510T866 425T885 312Q885
213 814 126T641 9T421 -20Q280 -20 196 -1T40 72Z" />
<glyph unicode="t" glyph-name="t" horiz-adv-x="798" d="M177 850Q118 850 130 900L153 1000Q165 1050 223 1050H291L299 1085Q309 1130 339 1167L448 1302Q478 1340 508 1340H578Q638 1340 625 1280L571 1050H733Q792 1050 781 1000L758 900Q746 850 687 850H525L411
354Q391 266 398 215T457 163Q488 163 526 170T589 188Q625 203 629 165L645 51Q649 18 608 1Q572 -14 508 -23T386 -33Q202 -33 145 68T130 350L245 850H177Z" />
<glyph unicode="u" glyph-name="u" horiz-adv-x="1194" d="M115 436L243 990Q257 1050 316 1050H476Q536 1050 523 990L411 508Q362 296 386 236T491 176Q592 176 673 295T806 635L887 990Q901 1050 960 1050H1120Q1180 1050 1167 990L952 60Q938 0 878 0H720Q659
0 674 60L695 147H691Q611 53 539 17T366 -20Q224 -20 142 87T115 436Z" />
<glyph unicode="v" glyph-name="v" horiz-adv-x="1008" d="M146 972Q139 1050 197 1050H358Q405 1050 407 999L426 413Q428 364 426 316T418 238H424Q433 268 452 316T496 413L787 999Q812 1050 858 1050H1055Q1113 1050 1070 972L571 67Q534 0 483 0H285Q233
0 227 67L146 972Z" />
<glyph unicode="w" glyph-name="w" horiz-adv-x="1604" d="M146 972Q142 1050 197 1050H354Q402 1050 403 999L402 413Q402 356 401 312T394 238H400Q409 268 427 313T472 413L750 999Q774 1050 821 1050H1003Q1051 1050 1052 999L1058 413Q1059 358 1057 313T1050
238H1056Q1065 268 1083 312T1128 413L1399 999Q1423 1050 1470 1050H1651Q1706 1050 1666 972L1197 67Q1162 0 1109 0H928Q871 0 870 67L862 660Q861 719 863 746T871 811H867Q856 773 846 746T806 660L524 67Q492 0 436 0H255Q201 0 197 67L146 972Z" />
<glyph unicode="x" glyph-name="x" horiz-adv-x="1046" d="M-33 0Q-118 0 -52 73L402 572L205 977Q169 1050 257 1050H423Q468 1050 482 1010L572 751L762 1010Q791 1050 839 1050H1061Q1148 1050 1081 977L680 539L904 73Q939 0 851 0H686Q642 0 627 40L508 358L268
40Q238 0 191 0H-33Z" />
<glyph unicode="y" glyph-name="y" horiz-adv-x="1194" d="M117 445L243 990Q257 1050 316 1050H476Q537 1050 523 990L411 508Q364 305 388 245T493 185Q594 185 676 304T806 635L887 990Q901 1050 960 1050H1120Q1181 1050 1167 990L939 11Q886 -218 745 -319T342
-420Q279 -420 197 -410T36 -357Q-17 -329 20 -270L69 -192Q96 -148 142 -172Q210 -207 258 -215T372 -224Q477 -224 551 -180T674 76Q684 120 697 156H693Q613 62 541 26T368 -11Q226 -11 144 96T117 445Z" />
<glyph unicode="z" glyph-name="z" horiz-adv-x="964" d="M-8 0Q-67 0 -56 50L-39 126Q-28 175 27 234L601 850L602 854Q561 850 521 850H212Q153 850 164 900L171 932Q197 1050 258 1050H950Q1010 1050 999 1000L983 930Q971 876 915 816L342 200L341 196Q395
200 422 200H778Q838 200 827 150L804 50Q792 0 732 0H-8Z" />
<glyph unicode="{" glyph-name="braceleft" horiz-adv-x="829" d="M117 444Q67 444 81 503L100 585Q114 644 163 644Q246 644 307 718T400 931L466 1216Q505 1386 584 1441T938 1496Q998 1496 987 1446L964 1346Q952 1296 892 1296Q812 1296 779 1255T728 1139L669
884Q629 709 558 637T350 545L349 543Q453 504 498 421T505 174L453 -51Q435 -129 438 -168T545 -208Q605 -208 593 -258L570 -358Q558 -408 499 -408Q264 -408 197 -320T173 -48L221 157Q267 354 224 399T117 444Z" />
<glyph unicode="|" glyph-name="bar" horiz-adv-x="630" d="M267 -440Q217 -440 217 -380V1436Q217 1496 267 1496H367Q417 1496 417 1436V-380Q417 -440 367 -440H267Z" />
<glyph unicode="}" glyph-name="braceright" horiz-adv-x="829" d="M-98 -408Q-158 -408 -147 -358L-124 -258Q-112 -208 -52 -208Q28 -208 61 -167T112 -51L171 204Q211 379 282 451T490 543L491 545Q387 584 342 667T335 914L387 1139Q405 1217 402 1256T295
1296Q235 1296 247 1346L270 1446Q282 1496 341 1496Q576 1496 643 1408T667 1136L619 931Q573 734 616 689T723 644Q773 644 759 585L740 503Q726 444 677 444Q594 444 533 370T440 157L374 -128Q335 -298 256 -353T-98 -408Z" />
<glyph unicode="~" glyph-name="asciitilde" horiz-adv-x="1280" d="M147 634Q116 650 130 688Q175 810 252 868T471 926Q601 926 733 820T940 714Q1015 714 1049 745T1109 822Q1135 867 1161 852L1227 816Q1258 800 1244 762Q1199 640 1122 582T903 524Q773 524
641 630T434 736Q359 736 325 705T265 628Q239 583 213 598L147 634Z" />
</font>
</defs>
</svg>
